<?xml version="1.0" encoding="UTF-8"?>
<svg version="1.1" xmlns="http://www.w3.org/2000/svg" width="92" height="75">
<path d="M0 0 C0.73221771 -0.00671722 1.46443542 -0.01343445 2.21884155 -0.02035522 C4.63570979 -0.03932891 7.05230023 -0.04325908 9.46923828 -0.04541016 C11.1530875 -0.0518386 12.8369356 -0.05856699 14.52078247 -0.06558228 C18.04968861 -0.0775535 21.57849687 -0.08126327 25.10742188 -0.08007812 C29.62237505 -0.07987496 34.1366986 -0.10717496 38.65150261 -0.14162254 C42.12943385 -0.16389481 45.60721365 -0.16791557 49.08520889 -0.16685867 C50.74934178 -0.16921422 52.41347887 -0.17803521 54.07754135 -0.19352341 C56.40890945 -0.21319057 58.73892107 -0.20734364 61.0703125 -0.1953125 C62.09451294 -0.21217102 62.09451294 -0.21217102 63.1394043 -0.22937012 C68.07423139 -0.1648813 70.86900245 1.20132065 74.66455078 4.29052734 C76.95094595 7.72012009 76.92551751 9.00668548 76.95507812 13.04370117 C76.96783783 14.22535355 76.98059753 15.40700592 76.9937439 16.62446594 C76.99596954 17.90258652 76.99819519 19.18070709 77.00048828 20.49755859 C77.01047348 22.46749031 77.01047348 22.46749031 77.0206604 24.47721863 C77.03263539 27.25885299 77.03634115 30.04036316 77.03515625 32.82202148 C77.03495336 36.37637498 77.06222201 39.9299262 77.09670067 43.48408985 C77.12437225 46.88442423 77.12312055 50.28461314 77.12548828 53.68505859 C77.13985931 54.95710648 77.15423035 56.22915436 77.16903687 57.53974915 C77.11119273 68.73684928 77.11119273 68.73684928 72.66455078 73.29052734 C69.08185105 75.68702956 65.49666445 75.58655424 61.32910156 75.58105469 C60.23077499 75.59113052 60.23077499 75.59113052 59.11026001 75.60140991 C56.69339177 75.6203836 54.27680133 75.62431377 51.85986328 75.62646484 C50.17601406 75.63289328 48.49216597 75.63962168 46.80831909 75.64663696 C43.27941295 75.65860819 39.7506047 75.66231796 36.22167969 75.66113281 C31.70672652 75.66092965 27.19240296 75.68822964 22.67759895 75.72267723 C19.19966772 75.7449495 15.72188792 75.74897026 12.24389267 75.74791336 C10.57975978 75.75026891 8.91562269 75.75908989 7.25156021 75.77457809 C4.92019212 75.79424526 2.59018049 75.78839832 0.25878906 75.77636719 C-0.42401123 75.7876062 -1.10681152 75.79884521 -1.81030273 75.8104248 C-6.74317063 75.74596159 -9.57730951 74.43791039 -13.33544922 71.29052734 C-15.62091018 68.11991996 -15.59784884 65.25222306 -15.62597656 61.40795898 C-15.63873627 60.22315445 -15.65149597 59.03834991 -15.66464233 57.81764221 C-15.66686798 56.54154587 -15.66909363 55.26544952 -15.67138672 53.95068359 C-15.67804352 52.63643906 -15.68470032 51.32219452 -15.69155884 49.96812439 C-15.70351982 47.18827021 -15.70724083 44.4085402 -15.70605469 41.62866211 C-15.7058514 38.07311926 -15.73316704 34.51837488 -15.76759911 30.96302128 C-15.79523106 27.5630634 -15.79401752 24.1632523 -15.79638672 20.76318359 C-15.81075775 19.48911148 -15.82512878 18.21503937 -15.8399353 16.90235901 C-15.83378204 15.71440231 -15.82762878 14.52644562 -15.82128906 13.30249023 C-15.8241391 12.25976456 -15.82698914 11.21703888 -15.82992554 10.14271545 C-15.0930611 5.89240881 -12.99812519 3.49177214 -9.54391479 0.9961853 C-6.37655609 -0.01586211 -3.29103509 -0.00434288 0 0 Z M-4.33544922 9.29052734 C-1.33715411 11.68916343 1.59736512 14.01153574 4.70361328 16.24365234 C5.44434082 16.77708252 6.18506836 17.3105127 6.94824219 17.86010742 C7.72087402 18.414646 8.49350586 18.96918457 9.28955078 19.54052734 C10.89381925 20.69533386 12.49798604 21.85028163 14.10205078 23.00537109 C15.26800781 23.84430908 15.26800781 23.84430908 16.45751953 24.70019531 C20.87157438 27.88085386 25.26829482 31.08532751 29.66455078 34.29052734 C33.73025808 32.47327938 37.27676107 29.88874972 40.91455078 27.35302734 C42.33628444 26.3671464 43.75816402 25.38147587 45.18017578 24.39599609 C45.91300781 23.8872998 46.64583984 23.37860352 47.40087891 22.85449219 C49.68461761 21.27666322 51.97755012 19.71317839 54.27392578 18.15380859 C55.0096582 17.65292725 55.74539062 17.1520459 56.50341797 16.63598633 C57.92952176 15.66564933 59.35722646 14.69766047 60.78662109 13.73217773 C62.4302043 12.61033087 64.05020721 11.45405689 65.66455078 10.29052734 C65.66455078 9.96052734 65.66455078 9.63052734 65.66455078 9.29052734 C42.56455078 9.29052734 19.46455078 9.29052734 -4.33544922 9.29052734 Z M-6.33544922 20.29052734 C-6.36074873 26.5201735 -6.37829471 32.74980647 -6.39038086 38.97949219 C-6.39541794 41.09993993 -6.40224781 43.22038419 -6.41088867 45.34082031 C-6.42298156 48.38396056 -6.42868369 51.427055 -6.43310547 54.47021484 C-6.43826675 55.42233856 -6.44342804 56.37446228 -6.44874573 57.35543823 C-6.44882126 58.23620026 -6.44889679 59.11696228 -6.44897461 60.02441406 C-6.45119522 60.80162811 -6.45341583 61.57884216 -6.45570374 62.37960815 C-6.45475608 64.37704307 -6.45475608 64.37704307 -5.33544922 66.29052734 C18.42455078 66.29052734 42.18455078 66.29052734 66.66455078 66.29052734 C67.82960068 63.96042755 67.78548658 62.61805657 67.77807617 60.02441406 C67.77800064 59.14365204 67.77792511 58.26289001 67.77784729 57.35543823 C67.772686 56.40331451 67.76752472 55.4511908 67.76220703 54.47021484 C67.76079208 53.49641876 67.75937714 52.52262268 67.75791931 51.51931763 C67.75231051 48.40135661 67.73975652 45.28346675 67.72705078 42.16552734 C67.72203691 40.0548513 67.71747381 37.94417412 67.71337891 35.83349609 C67.70233823 30.65248213 67.68559151 25.47150982 67.66455078 20.29052734 C63.87408783 22.42332186 60.15541672 24.52937798 56.61376953 27.06005859 C55.92001221 27.55344727 55.22625488 28.04683594 54.51147461 28.55517578 C53.79886475 29.0659668 53.08625488 29.57675781 52.35205078 30.10302734 C51.60656982 30.63057617 50.86108887 31.158125 50.09301758 31.70166016 C46.88207866 33.97591545 43.69445417 36.26808106 40.54736328 38.63037109 C39.69916016 39.26072266 38.85095703 39.89107422 37.97705078 40.54052734 C37.27193359 41.08193359 36.56681641 41.62333984 35.84033203 42.18115234 C32.76974566 43.7467655 31.08933084 43.82603841 27.66455078 43.29052734 C24.83084991 41.79340588 22.33912659 39.9114164 19.78955078 37.97802734 C18.29291047 36.88194289 16.79549395 35.78691764 15.29736328 34.69287109 C14.53584961 34.13067871 13.77433594 33.56848633 12.98974609 32.98925781 C9.26427194 30.26751809 5.46799008 27.65165642 1.66455078 25.04052734 C0.97635254 24.56317139 0.2881543 24.08581543 -0.42089844 23.59399414 C-3.1530752 21.32023642 -3.1530752 21.32023642 -6.33544922 20.29052734 Z " fill="#FFFFFF" transform="translate(15.33544921875,-0.29052734375)"/>
</svg>
